# xmcd
#
# Track frame offsets: 
#        150
#        17200
#        33575
#        46770
#        60452
#        77300
#        91447
#        113022
#        126260
#        138965
#
# Disc length: 2083 seconds
#
# Revision: 0
# Processed by: cddbd v1.5.2PL0 Copyright (c) Steve Scherf et al.
# Submitted via: ExactAudioCopyFreeDBPlugin 1.0
#
DISCID=7608210a
DTITLE=ΑΝΤΡΕΑΣ ΜΙΚΡΟΥΤΣΙΚΟΣ , ΣΟΦΙΑ ΒΟΣΣΟΥ - ΑΝΟΙΞΗ
DYEAR=1991
DGENRE=
TTITLE0=ΚΟΥΤΣΟΥΡΑΚΙ
TTITLE1=ΣΟΦΙΑ ΒΟΣΣΟΥ - ΠΑΘΟΣ (ΠΑΡΕ ΜΕ)
TTITLE2=ΑΝΤΡΕΑΣ ΜΙΚΡΟΥΤΣΙΚΟΣ - ΣΕ ΧΡΕΙΑΖΟΜΑΙ
TTITLE3=ΑΝΤΡΕΑΣ ΜΙΚΡΟΥΤΣΙΚΟΣ - ΓΙΑ ΤΗΝ ΕΥΗ
TTITLE4=ΣΟΦΙΑ ΒΟΣΣΟΥ , ΜΑΝΩΛΗΣ ΛΙΔΑΚΗΣ - ΔΕΝ ΜΕΤΑΝΙΩΝΩ
TTITLE5=ΣΟΦΙΑ ΒΟΣΣΟΥ - ΑΝΟΙΞΗ
TTITLE6=ΑΝΤΡΕΑΣ ΜΙΚΡΟΥΤΣΙΚΟΣ - ΘΑ ΞΑΝΑΒΡΕΘΟΥΜΕ
TTITLE7=ΣΟΦΙΑ ΒΟΣΣΟΥ - ΜΑΤΙΑ ΜΟΥ
TTITLE8=ΑΝΤΡΕΑΣ ΜΙΚΡΟΥΤΣΙΚΟΣ - ΕΣΕΝΑ ΜΟΝΑΧΑ ΑΓΑΠΩ
TTITLE9=ΣΟΦΙΑ ΒΟΣΣΟΥ - ΤΟ ΤΑΓΚΟ
EXTD=
EXTT0=
EXTT1=
EXTT2=
EXTT3=
EXTT4=
EXTT5=
EXTT6=
EXTT7=
EXTT8=
EXTT9=
PLAYORDER=
